<svg xmlns="http://www.w3.org/2000/svg" width="1300" height="920" viewBox="0 0 1300 920">
<rect width="100%" height="100%" fill="#ffffff"/>
<text x="74" y="42" font-family="Segoe UI, Arial" font-size="28" font-weight="700" fill="#111827">Offer Parameter Updates</text>
<text x="74" y="70" font-family="Segoe UI, Arial" font-size="14" fill="#4b5563">Each panel tracks learned offer weights for one feature. X-axis is batch number.</text>
<line x1="74" y1="104" x2="102" y2="104" stroke="#2563eb" stroke-width="3"/>
<text x="110" y="108" font-family="Segoe UI, Arial" font-size="12" fill="#374151">Advisor callback</text>
<line x1="264" y1="104" x2="292" y2="104" stroke="#dc2626" stroke-width="3"/>
<text x="300" y="108" font-family="Segoe UI, Arial" font-size="12" fill="#374151">Cashback bonus</text>
<line x1="454" y1="104" x2="482" y2="104" stroke="#16a34a" stroke-width="3"/>
<text x="490" y="108" font-family="Segoe UI, Arial" font-size="12" fill="#374151">Credit limit review</text>
<line x1="644" y1="104" x2="672" y2="104" stroke="#9333ea" stroke-width="3"/>
<text x="680" y="108" font-family="Segoe UI, Arial" font-size="12" fill="#374151">Fee waiver</text>
<line x1="834" y1="104" x2="862" y2="104" stroke="#ea580c" stroke-width="3"/>
<text x="870" y="108" font-family="Segoe UI, Arial" font-size="12" fill="#374151">Product bundle</text>
<line x1="1024" y1="104" x2="1052" y2="104" stroke="#0891b2" stroke-width="3"/>
<text x="1060" y="108" font-family="Segoe UI, Arial" font-size="12" fill="#374151">Rate bonus</text>
<text x="74.0" y="118" font-family="Segoe UI, Arial" font-size="18" font-weight="700" fill="#111827">Balance</text>
<rect x="74.0" y="136" width="547.0" height="255" fill="#ffffff" stroke="#d1d5db"/>
<line x1="74.0" y1="391.00" x2="621.0" y2="391.00" stroke="#e5e7eb"/>
<text x="64.0" y="395.00" text-anchor="end" font-family="Segoe UI, Arial" font-size="11" fill="#4b5563">0.046</text>
<line x1="74.0" y1="306.00" x2="621.0" y2="306.00" stroke="#e5e7eb"/>
<text x="64.0" y="310.00" text-anchor="end" font-family="Segoe UI, Arial" font-size="11" fill="#4b5563">0.232</text>
<line x1="74.0" y1="221.00" x2="621.0" y2="221.00" stroke="#e5e7eb"/>
<text x="64.0" y="225.00" text-anchor="end" font-family="Segoe UI, Arial" font-size="11" fill="#4b5563">0.418</text>
<line x1="74.0" y1="136.00" x2="621.0" y2="136.00" stroke="#e5e7eb"/>
<text x="64.0" y="140.00" text-anchor="end" font-family="Segoe UI, Arial" font-size="11" fill="#4b5563">0.604</text>
<text x="347.50" y="415" text-anchor="middle" font-family="Segoe UI, Arial" font-size="11" fill="#4b5563">1</text>
<polyline points="347.50,320.62" fill="none" stroke="#2563eb" stroke-width="2.4" stroke-linejoin="round" stroke-linecap="round"/>
<circle cx="347.50" cy="320.62" r="3" fill="#2563eb"/>
<polyline points="347.50,206.38" fill="none" stroke="#dc2626" stroke-width="2.4" stroke-linejoin="round" stroke-linecap="round"/>
<circle cx="347.50" cy="206.38" r="3" fill="#dc2626"/>
<polyline points="347.50,366.32" fill="none" stroke="#16a34a" stroke-width="2.4" stroke-linejoin="round" stroke-linecap="round"/>
<circle cx="347.50" cy="366.32" r="3" fill="#16a34a"/>
<polyline points="347.50,252.08" fill="none" stroke="#9333ea" stroke-width="2.4" stroke-linejoin="round" stroke-linecap="round"/>
<circle cx="347.50" cy="252.08" r="3" fill="#9333ea"/>
<polyline points="347.50,366.32" fill="none" stroke="#ea580c" stroke-width="2.4" stroke-linejoin="round" stroke-linecap="round"/>
<circle cx="347.50" cy="366.32" r="3" fill="#ea580c"/>
<polyline points="347.50,183.53" fill="none" stroke="#0891b2" stroke-width="2.4" stroke-linejoin="round" stroke-linecap="round"/>
<circle cx="347.50" cy="183.53" r="3" fill="#0891b2"/>
<text x="679.0" y="118" font-family="Segoe UI, Arial" font-size="18" font-weight="700" fill="#111827">NumOfProducts</text>
<rect x="679.0" y="136" width="547.0" height="255" fill="#ffffff" stroke="#d1d5db"/>
<line x1="679.0" y1="391.00" x2="1226.0" y2="391.00" stroke="#e5e7eb"/>
<text x="669.0" y="395.00" text-anchor="end" font-family="Segoe UI, Arial" font-size="11" fill="#4b5563">0.046</text>
<line x1="679.0" y1="306.00" x2="1226.0" y2="306.00" stroke="#e5e7eb"/>
<text x="669.0" y="310.00" text-anchor="end" font-family="Segoe UI, Arial" font-size="11" fill="#4b5563">0.232</text>
<line x1="679.0" y1="221.00" x2="1226.0" y2="221.00" stroke="#e5e7eb"/>
<text x="669.0" y="225.00" text-anchor="end" font-family="Segoe UI, Arial" font-size="11" fill="#4b5563">0.418</text>
<line x1="679.0" y1="136.00" x2="1226.0" y2="136.00" stroke="#e5e7eb"/>
<text x="669.0" y="140.00" text-anchor="end" font-family="Segoe UI, Arial" font-size="11" fill="#4b5563">0.604</text>
<text x="952.50" y="415" text-anchor="middle" font-family="Segoe UI, Arial" font-size="11" fill="#4b5563">1</text>
<polyline points="952.50,343.47" fill="none" stroke="#2563eb" stroke-width="2.4" stroke-linejoin="round" stroke-linecap="round"/>
<circle cx="952.50" cy="343.47" r="3" fill="#2563eb"/>
<polyline points="952.50,343.47" fill="none" stroke="#dc2626" stroke-width="2.4" stroke-linejoin="round" stroke-linecap="round"/>
<circle cx="952.50" cy="343.47" r="3" fill="#dc2626"/>
<polyline points="952.50,366.32" fill="none" stroke="#16a34a" stroke-width="2.4" stroke-linejoin="round" stroke-linecap="round"/>
<circle cx="952.50" cy="366.32" r="3" fill="#16a34a"/>
<polyline points="952.50,343.47" fill="none" stroke="#9333ea" stroke-width="2.4" stroke-linejoin="round" stroke-linecap="round"/>
<circle cx="952.50" cy="343.47" r="3" fill="#9333ea"/>
<polyline points="952.50,183.53" fill="none" stroke="#ea580c" stroke-width="2.4" stroke-linejoin="round" stroke-linecap="round"/>
<circle cx="952.50" cy="183.53" r="3" fill="#ea580c"/>
<polyline points="952.50,366.32" fill="none" stroke="#0891b2" stroke-width="2.4" stroke-linejoin="round" stroke-linecap="round"/>
<circle cx="952.50" cy="366.32" r="3" fill="#0891b2"/>
<text x="74.0" y="445" font-family="Segoe UI, Arial" font-size="18" font-weight="700" fill="#111827">HasCrCard</text>
<rect x="74.0" y="463" width="547.0" height="255" fill="#ffffff" stroke="#d1d5db"/>
<line x1="74.0" y1="718.00" x2="621.0" y2="718.00" stroke="#e5e7eb"/>
<text x="64.0" y="722.00" text-anchor="end" font-family="Segoe UI, Arial" font-size="11" fill="#4b5563">0.046</text>
<line x1="74.0" y1="633.00" x2="621.0" y2="633.00" stroke="#e5e7eb"/>
<text x="64.0" y="637.00" text-anchor="end" font-family="Segoe UI, Arial" font-size="11" fill="#4b5563">0.232</text>
<line x1="74.0" y1="548.00" x2="621.0" y2="548.00" stroke="#e5e7eb"/>
<text x="64.0" y="552.00" text-anchor="end" font-family="Segoe UI, Arial" font-size="11" fill="#4b5563">0.418</text>
<line x1="74.0" y1="463.00" x2="621.0" y2="463.00" stroke="#e5e7eb"/>
<text x="64.0" y="467.00" text-anchor="end" font-family="Segoe UI, Arial" font-size="11" fill="#4b5563">0.604</text>
<text x="347.50" y="742" text-anchor="middle" font-family="Segoe UI, Arial" font-size="11" fill="#4b5563">1</text>
<polyline points="347.50,670.47" fill="none" stroke="#2563eb" stroke-width="2.4" stroke-linejoin="round" stroke-linecap="round"/>
<circle cx="347.50" cy="670.47" r="3" fill="#2563eb"/>
<polyline points="347.50,693.32" fill="none" stroke="#dc2626" stroke-width="2.4" stroke-linejoin="round" stroke-linecap="round"/>
<circle cx="347.50" cy="693.32" r="3" fill="#dc2626"/>
<polyline points="347.50,487.68" fill="none" stroke="#16a34a" stroke-width="2.4" stroke-linejoin="round" stroke-linecap="round"/>
<circle cx="347.50" cy="487.68" r="3" fill="#16a34a"/>
<polyline points="347.50,647.62" fill="none" stroke="#9333ea" stroke-width="2.4" stroke-linejoin="round" stroke-linecap="round"/>
<circle cx="347.50" cy="647.62" r="3" fill="#9333ea"/>
<polyline points="347.50,670.47" fill="none" stroke="#ea580c" stroke-width="2.4" stroke-linejoin="round" stroke-linecap="round"/>
<circle cx="347.50" cy="670.47" r="3" fill="#ea580c"/>
<polyline points="347.50,693.32" fill="none" stroke="#0891b2" stroke-width="2.4" stroke-linejoin="round" stroke-linecap="round"/>
<circle cx="347.50" cy="693.32" r="3" fill="#0891b2"/>
<text x="679.0" y="445" font-family="Segoe UI, Arial" font-size="18" font-weight="700" fill="#111827">IsActiveMember</text>
<rect x="679.0" y="463" width="547.0" height="255" fill="#ffffff" stroke="#d1d5db"/>
<line x1="679.0" y1="718.00" x2="1226.0" y2="718.00" stroke="#e5e7eb"/>
<text x="669.0" y="722.00" text-anchor="end" font-family="Segoe UI, Arial" font-size="11" fill="#4b5563">0.046</text>
<line x1="679.0" y1="633.00" x2="1226.0" y2="633.00" stroke="#e5e7eb"/>
<text x="669.0" y="637.00" text-anchor="end" font-family="Segoe UI, Arial" font-size="11" fill="#4b5563">0.232</text>
<line x1="679.0" y1="548.00" x2="1226.0" y2="548.00" stroke="#e5e7eb"/>
<text x="669.0" y="552.00" text-anchor="end" font-family="Segoe UI, Arial" font-size="11" fill="#4b5563">0.418</text>
<line x1="679.0" y1="463.00" x2="1226.0" y2="463.00" stroke="#e5e7eb"/>
<text x="669.0" y="467.00" text-anchor="end" font-family="Segoe UI, Arial" font-size="11" fill="#4b5563">0.604</text>
<text x="952.50" y="742" text-anchor="middle" font-family="Segoe UI, Arial" font-size="11" fill="#4b5563">1</text>
<polyline points="952.50,510.53" fill="none" stroke="#2563eb" stroke-width="2.4" stroke-linejoin="round" stroke-linecap="round"/>
<circle cx="952.50" cy="510.53" r="3" fill="#2563eb"/>
<polyline points="952.50,601.92" fill="none" stroke="#dc2626" stroke-width="2.4" stroke-linejoin="round" stroke-linecap="round"/>
<circle cx="952.50" cy="601.92" r="3" fill="#dc2626"/>
<polyline points="952.50,624.77" fill="none" stroke="#16a34a" stroke-width="2.4" stroke-linejoin="round" stroke-linecap="round"/>
<circle cx="952.50" cy="624.77" r="3" fill="#16a34a"/>
<polyline points="952.50,601.92" fill="none" stroke="#9333ea" stroke-width="2.4" stroke-linejoin="round" stroke-linecap="round"/>
<circle cx="952.50" cy="601.92" r="3" fill="#9333ea"/>
<polyline points="952.50,624.77" fill="none" stroke="#ea580c" stroke-width="2.4" stroke-linejoin="round" stroke-linecap="round"/>
<circle cx="952.50" cy="624.77" r="3" fill="#ea580c"/>
<polyline points="952.50,601.92" fill="none" stroke="#0891b2" stroke-width="2.4" stroke-linejoin="round" stroke-linecap="round"/>
<circle cx="952.50" cy="601.92" r="3" fill="#0891b2"/>
<text x="650.0" y="896" text-anchor="middle" font-family="Segoe UI, Arial" font-size="14" fill="#111827">Batch number</text>
</svg>